<svg width="19" height="24" viewBox="0 0 19 24" fill="none" xmlns="http://www.w3.org/2000/svg">
<path d="M3.37883 9.73933C3.37883 9.65727 3.37883 9.57317 3.37883 9.48907C3.38296 8.59676 3.35611 7.7024 3.40154 6.81215C3.53372 4.15984 5.45437 1.96292 8.0772 1.42958C11.3815 0.756761 14.5496 2.91471 15.0886 6.21112C15.1464 6.57214 15.1588 6.94138 15.165 7.3065C15.1774 8.04086 15.1692 8.77522 15.1692 9.50753C15.1692 9.58548 15.1692 9.66138 15.1692 9.72292C15.4273 9.7824 15.6648 9.81317 15.8858 9.89317C16.6706 10.1762 17.129 10.8757 17.1332 11.7824C17.1373 12.7547 17.1332 13.725 17.1332 14.6973C17.1332 16.488 17.1332 18.2809 17.1332 20.0716C17.1332 20.9045 16.8007 21.5588 16.0221 21.9198C15.7619 22.0409 15.4521 22.1086 15.163 22.1086C11.237 22.1209 7.30893 22.1209 3.38296 22.1147C2.23676 22.1147 1.42307 21.2798 1.4148 20.1147C1.40654 18.9783 1.4148 17.8398 1.4148 16.7034C1.4148 15.0624 1.41067 13.4214 1.4148 11.7824C1.41687 10.8121 1.9497 10.0839 2.82741 9.83779C2.99263 9.79061 3.16817 9.7742 3.38089 9.73727L3.37883 9.73933ZM9.27296 11.0624C7.36057 11.0624 5.44817 11.0624 3.53578 11.0624C2.93274 11.0624 2.72415 11.2655 2.72415 11.8645C2.72415 14.5845 2.72415 17.3045 2.72415 20.0245C2.72415 20.605 2.941 20.8183 3.52546 20.8183C7.3585 20.8183 11.1895 20.8183 15.0225 20.8183C15.607 20.8183 15.8238 20.605 15.8238 20.0245C15.8238 17.2983 15.8238 14.5701 15.8238 11.8439C15.8238 11.2737 15.609 11.0645 15.0328 11.0645C13.1122 11.0645 11.1936 11.0645 9.27296 11.0645V11.0624ZM13.8474 9.75163C13.8474 8.79984 13.8743 7.87061 13.8433 6.94343C13.7483 4.13522 11.0676 2.09215 8.30437 2.70753C6.14622 3.18753 4.71709 4.95574 4.69643 7.18138C4.68817 7.96497 4.69643 8.75061 4.69643 9.5342C4.69643 9.60394 4.7047 9.67368 4.70883 9.74958H13.8495L13.8474 9.75163Z" fill="black"/>
<path d="M8.61816 17.5794C8.61816 17.5425 8.61402 17.5076 8.61816 17.4707C8.67598 17.0502 8.58718 16.7692 8.14522 16.5271C7.3687 16.1005 7.11055 15.0892 7.44511 14.2276C7.76109 13.4112 8.64294 12.9005 9.51652 13.0297C10.4521 13.1671 11.0964 13.801 11.2203 14.6994C11.3401 15.5733 10.892 16.3466 10.0555 16.7425C9.99359 16.7712 9.9337 16.8758 9.93163 16.9456C9.91924 17.3558 9.92957 17.7661 9.92544 18.1764C9.92131 18.6112 9.66935 18.8717 9.26663 18.8676C8.87011 18.8635 8.62642 18.6071 8.62022 18.1846C8.61815 17.9835 8.62022 17.7825 8.62022 17.5794H8.61816ZM9.25837 15.6082C9.65489 15.6123 9.91718 15.362 9.92337 14.9764C9.92957 14.5887 9.66935 14.322 9.28315 14.3138C8.89696 14.3056 8.62435 14.5661 8.61816 14.9517C8.61196 15.3435 8.86598 15.6041 9.25837 15.6102V15.6082Z" fill="black"/>
</svg>
