<svg width="25" height="25" viewBox="0 0 25 25" fill="none" xmlns="http://www.w3.org/2000/svg">
<ellipse cx="10.1738" cy="18.3154" rx="7" ry="3.5" stroke="#28303F" stroke-width="1.5" stroke-linejoin="round"/>
<circle cx="10.1738" cy="7.81543" r="4" stroke="#28303F" stroke-width="1.5" stroke-linejoin="round"/>
<path d="M15.5137 5.08105C17.4252 5.25298 18.9237 6.85917 18.9238 8.81543C18.9238 10.8864 17.2447 12.5652 15.1738 12.5654C14.7823 12.5654 14.4046 12.5049 14.0498 12.3936C14.5015 12.0107 14.8946 11.5619 15.2168 11.0625C16.4394 11.0394 17.4238 10.0436 17.4238 8.81543C17.4237 7.89484 16.87 7.10417 16.0781 6.75586C15.9724 6.16272 15.78 5.60013 15.5137 5.08105Z" fill="#28303F"/>
<path d="M15.9258 14.0859C17.3658 14.1573 18.6831 14.4297 19.7051 14.8555C20.3019 15.1042 20.8342 15.4193 21.2285 15.8076C21.6255 16.1987 21.9238 16.7091 21.9238 17.3154C21.9238 17.9217 21.6254 18.4322 21.2285 18.8232C20.8343 19.2115 20.3019 19.5267 19.7051 19.7754C19.3877 19.9076 19.041 20.0235 18.6719 20.125C18.986 19.5742 19.1611 18.9849 19.1709 18.3701C19.6363 18.1716 19.9694 17.9572 20.1758 17.7539C20.3857 17.547 20.4238 17.3993 20.4238 17.3154C20.4238 17.2315 20.3857 17.0838 20.1758 16.877C19.963 16.6673 19.6164 16.4438 19.1279 16.2402C18.8806 16.1372 18.6056 16.0432 18.3076 15.96C17.7432 15.2335 16.9264 14.5947 15.9258 14.0859Z" fill="#28303F"/>
</svg>
