<svg width="25" height="25" viewBox="0 0 25 25" fill="none" xmlns="http://www.w3.org/2000/svg">
<path d="M15.1738 10.8564L13.8809 12.1493C13.4904 12.5399 13.4904 13.173 13.8809 13.5636L15.1738 14.8564M14.1738 12.8564L22.1738 12.8564M6.17383 20.8564C3.96469 20.8564 2.17383 19.0656 2.17383 16.8564V8.85645C2.17383 6.64731 3.96469 4.85645 6.17383 4.85645M6.17383 20.8564C8.38297 20.8564 10.1738 19.0656 10.1738 16.8564V8.85645C10.1738 6.64731 8.38297 4.85645 6.17383 4.85645M6.17383 20.8564H14.1738C16.383 20.8564 18.1738 19.0656 18.1738 16.8564M6.17383 4.85645H14.1738C16.383 4.85645 18.1738 6.64731 18.1738 8.85645" stroke="#28303F" stroke-width="1.5" stroke-linecap="round"/>
</svg>
