<svg width="22" height="18" viewBox="0 0 22 18" fill="none" xmlns="http://www.w3.org/2000/svg">
<path d="M19.1738 10.7744L20.4667 9.48152C20.8572 9.091 20.8572 8.45783 20.4667 8.06731L19.1738 6.77441" stroke="#28303F" stroke-width="1.5" stroke-linecap="round" stroke-linejoin="round"/>
<path d="M20.1738 8.77441H12.1738M5.17383 16.7744C2.96469 16.7744 1.17383 14.9836 1.17383 12.7744V4.77441C1.17383 2.56528 2.96469 0.774414 5.17383 0.774414M5.17383 16.7744C7.38297 16.7744 9.17383 14.9836 9.17383 12.7744V4.77441C9.17383 2.56528 7.38297 0.774414 5.17383 0.774414M5.17383 16.7744H13.1738C15.383 16.7744 17.1738 14.9836 17.1738 12.7744M5.17383 0.774414H13.1738C15.383 0.774414 17.1738 2.56528 17.1738 4.77441" stroke="#28303F" stroke-width="1.5" stroke-linecap="round"/>
</svg>
