<svg width="23" height="20" viewBox="0 0 23 20" fill="none" xmlns="http://www.w3.org/2000/svg">
<path d="M18.9385 19.5208H3.40912C2.55107 19.5208 1.72816 19.1799 1.12142 18.5732C0.514688 17.9665 0.173828 17.1436 0.173828 16.2855V5.93256C0.173828 5.07451 0.514688 4.2516 1.12142 3.64486C1.72816 3.03813 2.55107 2.69727 3.40912 2.69727H18.9385C19.7966 2.69727 20.6195 3.03813 21.2262 3.64486C21.833 4.2516 22.1738 5.07451 22.1738 5.93256V16.2855C22.1738 17.1436 21.833 17.9665 21.2262 18.5732C20.6195 19.1799 19.7966 19.5208 18.9385 19.5208ZM3.40912 3.99138C2.89429 3.99138 2.40054 4.1959 2.0365 4.55994C1.67246 4.92398 1.46795 5.41773 1.46795 5.93256V16.2855C1.46795 16.8003 1.67246 17.2941 2.0365 17.6581C2.40054 18.0222 2.89429 18.2267 3.40912 18.2267H18.9385C19.4534 18.2267 19.9471 18.0222 20.3112 17.6581C20.6752 17.2941 20.8797 16.8003 20.8797 16.2855V5.93256C20.8797 5.41773 20.6752 4.92398 20.3112 4.55994C19.9471 4.1959 19.4534 3.99138 18.9385 3.99138H3.40912Z" fill="#333333"/>
<path d="M3.41366 19.5211C3.24205 19.5211 3.07747 19.453 2.95612 19.3316C2.83477 19.2103 2.7666 19.0457 2.7666 18.8741V3.34467C2.7666 3.17306 2.83477 3.00848 2.95612 2.88713C3.07747 2.76578 3.24205 2.69761 3.41366 2.69761C3.58527 2.69761 3.74985 2.76578 3.8712 2.88713C3.99255 3.00848 4.06072 3.17306 4.06072 3.34467V18.8741C4.06072 19.0457 3.99255 19.2103 3.8712 19.3316C3.74985 19.453 3.58527 19.5211 3.41366 19.5211ZM6.0019 19.5211C5.83029 19.5211 5.6657 19.453 5.54436 19.3316C5.42301 19.2103 5.35484 19.0457 5.35484 18.8741V3.34467C5.35484 3.17306 5.42301 3.00848 5.54436 2.88713C5.6657 2.76578 5.83029 2.69761 6.0019 2.69761C6.17351 2.69761 6.33809 2.76578 6.45944 2.88713C6.58078 3.00848 6.64895 3.17306 6.64895 3.34467V18.8741C6.64895 19.0457 6.58078 19.2103 6.45944 19.3316C6.33809 19.453 6.17351 19.5211 6.0019 19.5211ZM13.7666 3.99173C13.595 3.99173 13.4304 3.92356 13.3091 3.80221C13.1877 3.68086 13.1195 3.51628 13.1195 3.34467V2.05055C13.1195 1.87894 13.0514 1.71436 12.93 1.59301C12.8087 1.47166 12.6441 1.40349 12.4725 1.40349H9.88425C9.71264 1.40349 9.54806 1.47166 9.42671 1.59301C9.30536 1.71436 9.23719 1.87894 9.23719 2.05055V3.34467C9.23719 3.51628 9.16902 3.68086 9.04767 3.80221C8.92632 3.92356 8.76174 3.99173 8.59013 3.99173C8.41852 3.99173 8.25394 3.92356 8.13259 3.80221C8.01124 3.68086 7.94307 3.51628 7.94307 3.34467V2.05055C7.94307 1.53572 8.14759 1.04197 8.51163 0.677932C8.87567 0.313891 9.36942 0.109375 9.88425 0.109375H12.4725C12.9873 0.109375 13.4811 0.313891 13.8451 0.677932C14.2091 1.04197 14.4137 1.53572 14.4137 2.05055V3.34467C14.4137 3.51628 14.3455 3.68086 14.2241 3.80221C14.1028 3.92356 13.9382 3.99173 13.7666 3.99173ZM16.3548 19.5211C16.1832 19.5211 16.0186 19.453 15.8973 19.3316C15.776 19.2103 15.7078 19.0457 15.7078 18.8741V3.34467C15.7078 3.17306 15.776 3.00848 15.8973 2.88713C16.0186 2.76578 16.1832 2.69761 16.3548 2.69761C16.5264 2.69761 16.691 2.76578 16.8124 2.88713C16.9337 3.00848 17.0019 3.17306 17.0019 3.34467V18.8741C17.0019 19.0457 16.9337 19.2103 16.8124 19.3316C16.691 19.453 16.5264 19.5211 16.3548 19.5211ZM18.9431 19.5211C18.7715 19.5211 18.6069 19.453 18.4855 19.3316C18.3642 19.2103 18.296 19.0457 18.296 18.8741V3.34467C18.296 3.17306 18.3642 3.00848 18.4855 2.88713C18.6069 2.76578 18.7715 2.69761 18.9431 2.69761C19.1147 2.69761 19.2793 2.76578 19.4006 2.88713C19.522 3.00848 19.5901 3.17306 19.5901 3.34467V18.8741C19.5901 19.0457 19.522 19.2103 19.4006 19.3316C19.2793 19.453 19.1147 19.5211 18.9431 19.5211Z" fill="#333333"/>
</svg>
